# This file uses centimeters as units for non-parametric coordinates.

mtllib Tree3.mtl
g default
v 3.859738 4.662171 -1.254105
v 3.283289 4.662171 -2.385449
v 2.385449 4.662171 -3.283289
v 1.254105 4.662171 -3.859737
v 0.000000 4.662171 -4.058368
v -1.254105 4.662171 -3.859737
v -2.385448 4.662171 -3.283288
v -3.283288 4.662171 -2.385448
v -3.859736 4.662171 -1.254104
v -4.058367 4.662171 0.000000
v -3.859736 4.662171 1.254104
v -3.283288 4.662171 2.385448
v -2.385448 4.662171 3.283288
v -1.254104 4.662171 3.859736
v -0.000000 4.662171 4.058366
v 1.254104 4.662171 3.859735
v 2.385448 4.662171 3.283287
v 3.283287 4.662171 2.385448
v 3.859735 4.662171 1.254104
v 4.058366 4.662171 0.000000
v 0.000000 12.778903 0.000000
v 0.486002 0.151332 -0.157912
v 0.413418 0.151332 -0.300366
v 0.300366 0.151332 -0.413418
v 0.157912 0.151332 -0.486002
v 0.000000 0.151332 -0.511012
v -0.157912 0.151332 -0.486002
v -0.300366 0.151332 -0.413418
v -0.413418 0.151332 -0.300366
v -0.486002 0.151332 -0.157912
v -0.511012 0.151332 0.000000
v -0.486002 0.151332 0.157912
v -0.413418 0.151332 0.300366
v -0.300366 0.151332 0.413418
v -0.157912 0.151332 0.486002
v -0.000000 0.151332 0.511012
v 0.157911 0.151332 0.486002
v 0.300365 0.151332 0.413418
v 0.413418 0.151332 0.300366
v 0.486002 0.151332 0.157911
v 0.511012 0.151332 0.000000
v 0.486002 9.370780 -0.157912
v 0.413418 9.370780 -0.300366
v 0.300366 9.370780 -0.413418
v 0.157912 9.370780 -0.486002
v 0.000000 9.370780 -0.511012
v -0.157912 9.370780 -0.486002
v -0.300366 9.370780 -0.413418
v -0.413418 9.370780 -0.300366
v -0.486002 9.370780 -0.157912
v -0.511012 9.370780 0.000000
v -0.486002 9.370780 0.157912
v -0.413418 9.370780 0.300366
v -0.300366 9.370780 0.413418
v -0.157912 9.370780 0.486002
v -0.000000 9.370780 0.511012
v 0.157911 9.370780 0.486002
v 0.300365 9.370780 0.413418
v 0.413418 9.370780 0.300366
v 0.486002 9.370780 0.157911
v 0.511012 9.370780 0.000000
v 0.000000 0.151332 0.000000
v 0.000000 9.370780 0.000000
v 2.441023 8.614961 -0.793136
v 2.076458 8.614961 -1.508635
v 1.508635 8.614961 -2.076458
v 0.793136 8.614961 -2.441023
v 0.000000 8.614961 -2.566643
v -0.793136 8.614961 -2.441023
v -1.508635 8.614961 -2.076458
v -2.076458 8.614961 -1.508635
v -2.441022 8.614961 -0.793136
v -2.566643 8.614961 0.000000
v -2.441022 8.614961 0.793136
v -2.076457 8.614961 1.508634
v -1.508634 8.614961 2.076457
v -0.793136 8.614961 2.441022
v -0.000000 8.614961 2.566642
v 0.793136 8.614961 2.441022
v 1.508634 8.614961 2.076457
v 2.076457 8.614961 1.508634
v 2.441021 8.614961 0.793136
v 2.566642 8.614961 0.000000
v 0.000000 13.748244 0.000000
v 3.859738 2.258917 -1.254105
v 3.283289 2.258917 -2.385449
v 2.385449 2.258917 -3.283289
v 1.254105 2.258917 -3.859737
v 0.000000 2.258917 -4.058368
v -1.254105 2.258917 -3.859737
v -2.385448 2.258917 -3.283288
v -3.283288 2.258917 -2.385448
v -3.859736 2.258917 -1.254104
v -4.058367 2.258917 0.000000
v -3.859736 2.258917 1.254104
v -3.283288 2.258917 2.385448
v -2.385448 2.258917 3.283288
v -1.254104 2.258917 3.859736
v -0.000000 2.258917 4.058366
v 1.254104 2.258917 3.859735
v 2.385448 2.258917 3.283287
v 3.283287 2.258917 2.385448
v 3.859735 2.258917 1.254104
v 4.058366 2.258917 0.000000
v 0.000000 10.375648 0.000000
vt 0.737764 0.172746
vt 0.702254 0.103054
vt 0.646946 0.047746
vt 0.577254 0.012236
vt 0.500000 -0.000000
vt 0.422746 0.012236
vt 0.353054 0.047746
vt 0.297746 0.103054
vt 0.262236 0.172746
vt 0.250000 0.250000
vt 0.262236 0.327254
vt 0.297746 0.396946
vt 0.353054 0.452254
vt 0.422746 0.487764
vt 0.500000 0.500000
vt 0.577254 0.487764
vt 0.646946 0.452254
vt 0.702254 0.396946
vt 0.737764 0.327254
vt 0.750000 0.250000
vt 0.250000 0.500000
vt 0.275000 0.500000
vt 0.300000 0.500000
vt 0.325000 0.500000
vt 0.350000 0.500000
vt 0.375000 0.500000
vt 0.400000 0.500000
vt 0.425000 0.500000
vt 0.450000 0.500000
vt 0.475000 0.500000
vt 0.500000 0.500000
vt 0.525000 0.500000
vt 0.550000 0.500000
vt 0.575000 0.500000
vt 0.600000 0.500000
vt 0.625000 0.500000
vt 0.650000 0.500000
vt 0.675000 0.500000
vt 0.700000 0.500000
vt 0.725000 0.500000
vt 0.750000 0.500000
vt 0.500000 1.000000
vt 0.375000 0.312500
vt 0.387500 0.312500
vt 0.387500 0.688440
vt 0.375000 0.688440
vt 0.400000 0.312500
vt 0.400000 0.688440
vt 0.412500 0.312500
vt 0.412500 0.688440
vt 0.425000 0.312500
vt 0.425000 0.688440
vt 0.437500 0.312500
vt 0.437500 0.688440
vt 0.450000 0.312500
vt 0.450000 0.688440
vt 0.462500 0.312500
vt 0.462500 0.688440
vt 0.475000 0.312500
vt 0.475000 0.688440
vt 0.487500 0.312500
vt 0.487500 0.688440
vt 0.500000 0.312500
vt 0.500000 0.688440
vt 0.512500 0.312500
vt 0.512500 0.688440
vt 0.525000 0.312500
vt 0.525000 0.688440
vt 0.537500 0.312500
vt 0.537500 0.688440
vt 0.550000 0.312500
vt 0.550000 0.688440
vt 0.562500 0.312500
vt 0.562500 0.688440
vt 0.575000 0.312500
vt 0.575000 0.688440
vt 0.587500 0.312500
vt 0.587500 0.688440
vt 0.600000 0.312500
vt 0.600000 0.688440
vt 0.612500 0.312500
vt 0.612500 0.688440
vt 0.625000 0.312500
vt 0.625000 0.688440
vt 0.626409 0.064408
vt 0.648603 0.107966
vt 0.500000 0.150000
vt 0.591842 0.029841
vt 0.548284 0.007647
vt 0.500000 -0.000000
vt 0.451716 0.007647
vt 0.408159 0.029841
vt 0.373591 0.064409
vt 0.351397 0.107966
vt 0.343750 0.156250
vt 0.351397 0.204534
vt 0.373591 0.248091
vt 0.408159 0.282659
vt 0.451716 0.304853
vt 0.500000 0.312500
vt 0.548284 0.304853
vt 0.591841 0.282659
vt 0.626409 0.248091
vt 0.648603 0.204534
vt 0.656250 0.156250
vt 0.648603 0.892034
vt 0.626409 0.935591
vt 0.500000 0.837500
vt 0.591841 0.970159
vt 0.548284 0.992353
vt 0.500000 1.000000
vt 0.451716 0.992353
vt 0.408159 0.970159
vt 0.373591 0.935591
vt 0.351397 0.892034
vt 0.343750 0.843750
vt 0.351397 0.795466
vt 0.373591 0.751909
vt 0.408159 0.717341
vt 0.451716 0.695147
vt 0.500000 0.687500
vt 0.548284 0.695147
vt 0.591842 0.717341
vt 0.626409 0.751908
vt 0.648603 0.795466
vt 0.656250 0.843750
vt 0.737764 0.172746
vt 0.750000 0.250000
vt 0.737764 0.327254
vt 0.702254 0.396946
vt 0.646946 0.452254
vt 0.577254 0.487764
vt 0.500000 0.500000
vt 0.422746 0.487764
vt 0.353054 0.452254
vt 0.297746 0.396946
vt 0.262236 0.327254
vt 0.250000 0.250000
vt 0.262236 0.172746
vt 0.297746 0.103054
vt 0.353054 0.047746
vt 0.422746 0.012236
vt 0.500000 -0.000000
vt 0.577254 0.012236
vt 0.646946 0.047746
vt 0.702254 0.103054
vt 0.250000 0.500000
vt 0.275000 0.500000
vt 0.500000 1.000000
vt 0.300000 0.500000
vt 0.325000 0.500000
vt 0.350000 0.500000
vt 0.375000 0.500000
vt 0.400000 0.500000
vt 0.425000 0.500000
vt 0.450000 0.500000
vt 0.475000 0.500000
vt 0.500000 0.500000
vt 0.525000 0.500000
vt 0.550000 0.500000
vt 0.575000 0.500000
vt 0.600000 0.500000
vt 0.625000 0.500000
vt 0.650000 0.500000
vt 0.675000 0.500000
vt 0.700000 0.500000
vt 0.725000 0.500000
vt 0.750000 0.500000
vt 0.737764 0.172746
vt 0.750000 0.250000
vt 0.737764 0.327254
vt 0.702254 0.396946
vt 0.646946 0.452254
vt 0.577254 0.487764
vt 0.500000 0.500000
vt 0.422746 0.487764
vt 0.353054 0.452254
vt 0.297746 0.396946
vt 0.262236 0.327254
vt 0.250000 0.250000
vt 0.262236 0.172746
vt 0.297746 0.103054
vt 0.353054 0.047746
vt 0.422746 0.012236
vt 0.500000 -0.000000
vt 0.577254 0.012236
vt 0.646946 0.047746
vt 0.702254 0.103054
vt 0.250000 0.500000
vt 0.275000 0.500000
vt 0.500000 1.000000
vt 0.300000 0.500000
vt 0.325000 0.500000
vt 0.350000 0.500000
vt 0.375000 0.500000
vt 0.400000 0.500000
vt 0.425000 0.500000
vt 0.450000 0.500000
vt 0.475000 0.500000
vt 0.500000 0.500000
vt 0.525000 0.500000
vt 0.550000 0.500000
vt 0.575000 0.500000
vt 0.600000 0.500000
vt 0.625000 0.500000
vt 0.650000 0.500000
vt 0.675000 0.500000
vt 0.700000 0.500000
vt 0.725000 0.500000
vt 0.750000 0.500000
vn 0.000000 -1.000000 0.000000
vn 0.000000 -1.000000 0.000000
vn 0.000000 -1.000000 0.000000
vn 0.000000 -1.000000 0.000000
vn 0.000000 -1.000000 0.000000
vn 0.000000 -1.000000 0.000000
vn 0.000000 -1.000000 0.000000
vn 0.000000 -1.000000 0.000000
vn 0.000000 -1.000000 0.000000
vn 0.000000 -1.000000 0.000000
vn 0.000000 -1.000000 0.000000
vn 0.000000 -1.000000 0.000000
vn 0.000000 -1.000000 0.000000
vn 0.000000 -1.000000 0.000000
vn 0.000000 -1.000000 0.000000
vn 0.000000 -1.000000 0.000000
vn 0.000000 -1.000000 0.000000
vn 0.000000 -1.000000 0.000000
vn 0.000000 -1.000000 0.000000
vn 0.000000 -1.000000 0.000000
vn 0.850651 0.447214 -0.276392
vn 0.723607 0.447214 -0.525731
vn 0.000003 1.000000 0.000001
vn 0.525731 0.447214 -0.723607
vn 0.276393 0.447214 -0.850651
vn -0.000000 0.447214 -0.894427
vn -0.276393 0.447214 -0.850651
vn -0.525731 0.447214 -0.723607
vn -0.723607 0.447214 -0.525731
vn -0.850651 0.447214 -0.276393
vn -0.894427 0.447214 0.000000
vn -0.850651 0.447214 0.276393
vn -0.723607 0.447214 0.525731
vn -0.525731 0.447214 0.723607
vn -0.276393 0.447214 0.850651
vn 0.000000 0.447214 0.894427
vn 0.276393 0.447214 0.850651
vn 0.525731 0.447214 0.723607
vn 0.723607 0.447214 0.525731
vn 0.850651 0.447214 0.276393
vn 0.894427 0.447214 0.000001
vn 0.951057 0.000000 -0.309016
vn 0.809017 0.000000 -0.587785
vn 0.809017 0.000000 -0.587785
vn 0.951057 0.000000 -0.309016
vn 0.587785 0.000000 -0.809017
vn 0.587785 0.000000 -0.809017
vn 0.309017 0.000000 -0.951057
vn 0.309017 0.000000 -0.951057
vn 0.000000 0.000000 -1.000000
vn 0.000000 0.000000 -1.000000
vn -0.309017 0.000000 -0.951057
vn -0.309017 0.000000 -0.951057
vn -0.587785 0.000000 -0.809017
vn -0.587785 0.000000 -0.809017
vn -0.809017 0.000000 -0.587785
vn -0.809017 0.000000 -0.587785
vn -0.951057 0.000000 -0.309017
vn -0.951057 0.000000 -0.309017
vn -1.000000 0.000000 0.000000
vn -1.000000 0.000000 0.000000
vn -0.951057 0.000000 0.309017
vn -0.951057 0.000000 0.309017
vn -0.809017 0.000000 0.587785
vn -0.809017 0.000000 0.587785
vn -0.587785 0.000000 0.809017
vn -0.587785 0.000000 0.809017
vn -0.309017 0.000000 0.951057
vn -0.309017 0.000000 0.951057
vn 0.000000 0.000000 1.000000
vn 0.000000 0.000000 1.000000
vn 0.309017 0.000000 0.951057
vn 0.309017 0.000000 0.951057
vn 0.587785 0.000000 0.809017
vn 0.587785 0.000000 0.809017
vn 0.809017 0.000000 0.587785
vn 0.809017 0.000000 0.587785
vn 0.951057 0.000000 0.309017
vn 0.951057 0.000000 0.309017
vn 1.000000 0.000000 0.000001
vn 1.000000 0.000000 0.000001
vn 0.000000 -1.000000 0.000000
vn 0.000000 -1.000000 0.000000
vn 0.000000 -1.000000 -0.000000
vn 0.000000 -1.000000 0.000000
vn 0.000000 -1.000000 -0.000000
vn 0.000000 -1.000000 0.000000
vn 0.000000 -1.000000 0.000000
vn 0.000000 -1.000000 0.000000
vn 0.000000 -1.000000 0.000000
vn 0.000000 -1.000000 0.000000
vn 0.000000 -1.000000 0.000000
vn 0.000000 -1.000000 0.000000
vn 0.000000 -1.000000 0.000000
vn 0.000000 -1.000000 -0.000000
vn 0.000000 -1.000000 -0.000000
vn 0.000000 -1.000000 0.000000
vn 0.000000 -1.000000 0.000000
vn 0.000000 -1.000000 0.000000
vn 0.000000 -1.000000 -0.000000
vn 0.000000 -1.000000 -0.000000
vn 0.000000 -1.000000 0.000000
vn 0.000000 1.000000 0.000000
vn 0.000000 1.000000 0.000000
vn 0.000000 1.000000 -0.000001
vn 0.000000 1.000000 0.000000
vn 0.000000 1.000000 0.000000
vn 0.000000 1.000000 0.000000
vn 0.000000 1.000000 0.000001
vn 0.000000 1.000000 -0.000001
vn 0.000000 1.000000 -0.000006
vn 0.000000 1.000000 -0.000003
vn 0.000000 1.000000 0.000000
vn 0.000000 1.000000 0.000000
vn 0.000000 1.000000 0.000000
vn 0.000000 1.000000 0.000000
vn 0.000000 1.000000 0.000000
vn 0.000000 1.000000 0.000000
vn 0.000000 1.000000 0.000000
vn 0.000000 1.000000 -0.000003
vn 0.000000 1.000000 -0.000003
vn 0.000000 1.000000 0.000000
vn 0.000000 1.000000 0.000000
vn 0.000000 -1.000000 0.000000
vn 0.000000 -1.000000 0.000000
vn 0.000000 -1.000000 0.000000
vn 0.000000 -1.000000 0.000000
vn 0.000000 -1.000000 0.000000
vn 0.000000 -1.000000 0.000000
vn 0.000000 -1.000000 0.000000
vn 0.000000 -1.000000 0.000000
vn 0.000000 -1.000000 0.000000
vn 0.000000 -1.000000 0.000000
vn 0.000000 -1.000000 0.000000
vn 0.000000 -1.000000 0.000000
vn 0.000000 -1.000000 0.000000
vn 0.000000 -1.000000 0.000000
vn 0.000000 -1.000000 0.000000
vn 0.000000 -1.000000 0.000000
vn 0.000000 -1.000000 0.000000
vn 0.000000 -1.000000 0.000000
vn 0.000000 -1.000000 0.000000
vn 0.000000 -1.000000 0.000000
vn 0.850651 0.447214 -0.276392
vn 0.723607 0.447214 -0.525731
vn 0.000000 1.000000 0.000000
vn 0.525731 0.447214 -0.723607
vn 0.276393 0.447214 -0.850651
vn 0.000000 0.447214 -0.894427
vn -0.276393 0.447214 -0.850651
vn -0.525731 0.447214 -0.723607
vn -0.723607 0.447214 -0.525730
vn -0.850651 0.447214 -0.276393
vn -0.894427 0.447214 0.000000
vn -0.850651 0.447214 0.276393
vn -0.723607 0.447214 0.525731
vn -0.525731 0.447214 0.723607
vn -0.276393 0.447214 0.850651
vn 0.000000 0.447214 0.894427
vn 0.276393 0.447214 0.850651
vn 0.525731 0.447214 0.723607
vn 0.723607 0.447214 0.525731
vn 0.850651 0.447214 0.276393
vn 0.894427 0.447214 0.000001
vn 0.000000 -1.000000 0.000000
vn 0.000000 -1.000000 0.000000
vn 0.000000 -1.000000 0.000000
vn 0.000000 -1.000000 0.000000
vn 0.000000 -1.000000 0.000000
vn 0.000000 -1.000000 0.000000
vn 0.000000 -1.000000 0.000000
vn 0.000000 -1.000000 0.000000
vn 0.000000 -1.000000 0.000000
vn 0.000000 -1.000000 0.000000
vn 0.000000 -1.000000 0.000000
vn 0.000000 -1.000000 0.000000
vn 0.000000 -1.000000 0.000000
vn 0.000000 -1.000000 0.000000
vn 0.000000 -1.000000 0.000000
vn 0.000000 -1.000000 0.000000
vn 0.000000 -1.000000 0.000000
vn 0.000000 -1.000000 0.000000
vn 0.000000 -1.000000 0.000000
vn 0.000000 -1.000000 0.000000
vn 0.850651 0.447214 -0.276392
vn 0.723607 0.447214 -0.525731
vn 0.000003 1.000000 0.000001
vn 0.525731 0.447214 -0.723607
vn 0.276393 0.447214 -0.850651
vn -0.000000 0.447214 -0.894427
vn -0.276393 0.447214 -0.850651
vn -0.525731 0.447214 -0.723607
vn -0.723607 0.447214 -0.525731
vn -0.850651 0.447214 -0.276393
vn -0.894427 0.447214 0.000000
vn -0.850651 0.447214 0.276393
vn -0.723607 0.447214 0.525731
vn -0.525731 0.447214 0.723607
vn -0.276393 0.447214 0.850651
vn 0.000000 0.447214 0.894427
vn 0.276393 0.447214 0.850651
vn 0.525731 0.447214 0.723607
vn 0.723607 0.447214 0.525731
vn 0.850651 0.447214 0.276393
vn 0.894427 0.447214 0.000001
s off
g pasted__pCone1
usemtl lambert2SG
f 1/1/1 20/20/2 19/19/3 18/18/4 17/17/5 16/16/6 15/15/7 14/14/8 13/13/9 12/12/10 11/11/11 10/10/12 9/9/13 8/8/14 7/7/15 6/6/16 5/5/17 4/4/18 3/3/19 2/2/20
s 1
f 1/21/21 2/22/22 21/42/23
f 2/22/22 3/23/24 21/42/23
f 3/23/24 4/24/25 21/42/23
f 4/24/25 5/25/26 21/42/23
f 5/25/26 6/26/27 21/42/23
f 6/26/27 7/27/28 21/42/23
f 7/27/28 8/28/29 21/42/23
f 8/28/29 9/29/30 21/42/23
f 9/29/30 10/30/31 21/42/23
f 10/30/31 11/31/32 21/42/23
f 11/31/32 12/32/33 21/42/23
f 12/32/33 13/33/34 21/42/23
f 13/33/34 14/34/35 21/42/23
f 14/34/35 15/35/36 21/42/23
f 15/35/36 16/36/37 21/42/23
f 16/36/37 17/37/38 21/42/23
f 17/37/38 18/38/39 21/42/23
f 18/38/39 19/39/40 21/42/23
f 19/39/40 20/40/41 21/42/23
f 20/40/41 1/41/21 21/42/23
s 2
usemtl lambert3SG
f 22/43/42 23/44/43 43/45/44 42/46/45
f 23/44/43 24/47/46 44/48/47 43/45/44
f 24/47/46 25/49/48 45/50/49 44/48/47
f 25/49/48 26/51/50 46/52/51 45/50/49
f 26/51/50 27/53/52 47/54/53 46/52/51
f 27/53/52 28/55/54 48/56/55 47/54/53
f 28/55/54 29/57/56 49/58/57 48/56/55
f 29/57/56 30/59/58 50/60/59 49/58/57
f 30/59/58 31/61/60 51/62/61 50/60/59
f 31/61/60 32/63/62 52/64/63 51/62/61
f 32/63/62 33/65/64 53/66/65 52/64/63
f 33/65/64 34/67/66 54/68/67 53/66/65
f 34/67/66 35/69/68 55/70/69 54/68/67
f 35/69/68 36/71/70 56/72/71 55/70/69
f 36/71/70 37/73/72 57/74/73 56/72/71
f 37/73/72 38/75/74 58/76/75 57/74/73
f 38/75/74 39/77/76 59/78/77 58/76/75
f 39/77/76 40/79/78 60/80/79 59/78/77
f 40/79/78 41/81/80 61/82/81 60/80/79
f 41/81/80 22/83/42 42/84/45 61/82/81
s 3
f 23/85/82 22/86/83 62/87/84
f 24/88/85 23/85/82 62/87/84
f 25/89/86 24/88/85 62/87/84
f 26/90/87 25/89/86 62/87/84
f 27/91/88 26/90/87 62/87/84
f 28/92/89 27/91/88 62/87/84
f 29/93/90 28/92/89 62/87/84
f 30/94/91 29/93/90 62/87/84
f 31/95/92 30/94/91 62/87/84
f 32/96/93 31/95/92 62/87/84
f 33/97/94 32/96/93 62/87/84
f 34/98/95 33/97/94 62/87/84
f 35/99/96 34/98/95 62/87/84
f 36/100/97 35/99/96 62/87/84
f 37/101/98 36/100/97 62/87/84
f 38/102/99 37/101/98 62/87/84
f 39/103/100 38/102/99 62/87/84
f 40/104/101 39/103/100 62/87/84
f 41/105/102 40/104/101 62/87/84
f 22/86/83 41/105/102 62/87/84
s 4
f 42/106/103 43/107/104 63/108/105
f 43/107/104 44/109/106 63/108/105
f 44/109/106 45/110/107 63/108/105
f 45/110/107 46/111/108 63/108/105
f 46/111/108 47/112/109 63/108/105
f 47/112/109 48/113/110 63/108/105
f 48/113/110 49/114/111 63/108/105
f 49/114/111 50/115/112 63/108/105
f 50/115/112 51/116/113 63/108/105
f 51/116/113 52/117/114 63/108/105
f 52/117/114 53/118/115 63/108/105
f 53/118/115 54/119/116 63/108/105
f 54/119/116 55/120/117 63/108/105
f 55/120/117 56/121/118 63/108/105
f 56/121/118 57/122/119 63/108/105
f 57/122/119 58/123/120 63/108/105
f 58/123/120 59/124/121 63/108/105
f 59/124/121 60/125/122 63/108/105
f 60/125/122 61/126/123 63/108/105
f 61/126/123 42/106/103 63/108/105
s off
usemtl lambert2SG
f 64/127/124 83/128/125 82/129/126 81/130/127 80/131/128 79/132/129 78/133/130 77/134/131 76/135/132 75/136/133 74/137/134 73/138/135 72/139/136 71/140/137 70/141/138 69/142/139 68/143/140 67/144/141 66/145/142 65/146/143
s 5
f 64/147/144 65/148/145 84/149/146
f 65/148/145 66/150/147 84/149/146
f 66/150/147 67/151/148 84/149/146
f 67/151/148 68/152/149 84/149/146
f 68/152/149 69/153/150 84/149/146
f 69/153/150 70/154/151 84/149/146
f 70/154/151 71/155/152 84/149/146
f 71/155/152 72/156/153 84/149/146
f 72/156/153 73/157/154 84/149/146
f 73/157/154 74/158/155 84/149/146
f 74/158/155 75/159/156 84/149/146
f 75/159/156 76/160/157 84/149/146
f 76/160/157 77/161/158 84/149/146
f 77/161/158 78/162/159 84/149/146
f 78/162/159 79/163/160 84/149/146
f 79/163/160 80/164/161 84/149/146
f 80/164/161 81/165/162 84/149/146
f 81/165/162 82/166/163 84/149/146
f 82/166/163 83/167/164 84/149/146
f 83/167/164 64/168/144 84/149/146
s off
f 85/169/165 104/170/166 103/171/167 102/172/168 101/173/169 100/174/170 99/175/171 98/176/172 97/177/173 96/178/174 95/179/175 94/180/176 93/181/177 92/182/178 91/183/179 90/184/180 89/185/181 88/186/182 87/187/183 86/188/184
s 6
f 85/189/185 86/190/186 105/191/187
f 86/190/186 87/192/188 105/191/187
f 87/192/188 88/193/189 105/191/187
f 88/193/189 89/194/190 105/191/187
f 89/194/190 90/195/191 105/191/187
f 90/195/191 91/196/192 105/191/187
f 91/196/192 92/197/193 105/191/187
f 92/197/193 93/198/194 105/191/187
f 93/198/194 94/199/195 105/191/187
f 94/199/195 95/200/196 105/191/187
f 95/200/196 96/201/197 105/191/187
f 96/201/197 97/202/198 105/191/187
f 97/202/198 98/203/199 105/191/187
f 98/203/199 99/204/200 105/191/187
f 99/204/200 100/205/201 105/191/187
f 100/205/201 101/206/202 105/191/187
f 101/206/202 102/207/203 105/191/187
f 102/207/203 103/208/204 105/191/187
f 103/208/204 104/209/205 105/191/187
f 104/209/205 85/210/185 105/191/187
